PathFileType	4	(X/Y/Z)	D:\telocate\uwb06-Unnamed.trc
DataRate	CameraRate	NumFrames	NumMarkers	Units	OrigDataRate	OrigDataStartFrame	OrigNumFrames
100.00	100.00	     78	0	mm	100.00	14449	     16512
Frame#	Time	
		

14449	144.480				51.12534	1817.74036	1136.37366	
14450	144.490				44.60713	1818.60706	1136.23572	
14451	144.500				34.52190	1819.77161	1136.83142	
14452	144.510				28.58974	1820.32300	1136.01904	
14453	144.520				20.63642	1821.85449	1138.15967	
14454	144.530				6.94753	1821.33118	1136.86853	
14455	144.540				-0.01616	1822.12231	1137.16113	
14456	144.550				-8.82454	1822.75000	1136.46643	
14457	144.560				-17.28928	1821.88525	1136.19458	
14458	144.570				-27.66137	1822.53235	1137.23535	
14459	144.580				-35.74503	1822.60400	1137.01733	
14460	144.590				-45.65511	1822.12988	1136.98962	
14461	144.600				-53.05673	1821.72205	1137.29956	
14462	144.610				-62.37429	1821.87500	1138.09875	
14463	144.620				-73.00288	1820.83789	1137.29382	
14464	144.630				-79.56643	1820.20093	1138.27856	
14465	144.640				-89.24737	1819.13989	1138.52490	
14466	144.650				-96.28059	1818.69470	1139.01929	
14467	144.660				-106.88657	1818.03528	1138.68787	
14468	144.670				-116.19173	1817.03247	1139.60315	
14469	144.680				-125.67690	1816.42749	1140.38464	
14470	144.690				-131.87624	1815.42163	1141.45044	
14471	144.700				-140.03477	1813.95117	1141.03076	
14472	144.710				-153.31517	1812.31836	1140.09802	
14473	144.720				-160.79416	1811.53833	1139.16187	
14474	144.730				-170.43941	1810.20117	1138.57739	
14475	144.740				-179.98717	1807.57397	1138.42480	
14476	144.750				-193.31090	1807.55225	1138.71069	
14477	144.760				-199.99739	1805.88977	1137.44275	
14478	144.770				-210.65778	1804.45728	1135.77942	
14479	144.780				-219.47746	1802.99841	1136.69495	
14480	144.790				-233.28012	1799.76782	1136.90125	
14481	144.800				-240.31017	1798.99561	1134.87939	
14482	144.810				-251.76602	1795.99536	1134.81494	
14483	144.820				-258.58084	1793.78210	1135.66675	
14484	144.830				-273.10513	1791.49219	1132.69568	
14485	144.840				-281.02081	1790.44922	1132.13086	
14486	144.850				-292.19928	1785.97241	1131.74951	
14487	144.860				-298.66669	1786.18335	1132.89709	
14488	144.870				-311.38934	1783.06348	1130.46191	
14489	144.880				-321.67441	1780.75061	1130.27893	
14490	144.890				-331.95920	1778.18262	1129.51611	
14491	144.900				-338.10141	1774.49573	1131.37109	
14492	144.910				-351.42310	1771.25610	1129.63818	
14493	144.920				-361.18082	1769.70959	1128.21863	
14494	144.930				-369.31195	1766.58960	1127.44604	
14495	144.940				-376.52139	1764.40234	1128.79773	
14496	144.950				-386.23251	1761.62183	1128.51721	
14497	144.960				-399.52151	1757.80371	1125.98572	
14498	144.970				-404.75241	1753.82190	1128.03442	
14499	144.980				-414.18802	1750.13220	1127.69702	
14500	144.990				-421.54291	1747.27271	1127.40063	
14501	145.000				-433.38846	1744.34143	1125.26953	
14502	145.010				-443.22913	1739.08826	1126.11035	
14503	145.020				-447.78210	1738.22644	1127.15430	
14504	145.030				-457.12701	1732.88599	1128.25146	
14505	145.040				-464.08246	1728.95691	1127.89478	
14506	145.050				-475.86804	1726.40283	1125.89209	
14507	145.060				-486.25455	1721.46216	1127.35754	
14508	145.070				-490.08627	1719.57739	1127.19641	
14509	145.080				-498.36264	1716.19202	1128.01050	
14510	145.090				-505.07935	1711.96350	1128.74890	
14511	145.100				-512.50659	1708.24500	1129.11755	
14512	145.110				-526.00647	1702.43811	1129.28455	
14513	145.120				-529.61664	1699.66956	1129.67944	
14514	145.130				-537.65472	1695.39136	1130.78699	
14515	145.140				-544.57776	1688.75024	1132.26880	
14516	145.150				-550.69440	1686.13696	1132.18164	
14517	145.160				-559.25024	1681.98303	1133.11230	
14518	145.170				-569.56451	1677.00745	1133.12146	
14519	145.180				-573.51343	1670.57654	1135.10742	
14520	145.190				-580.63934	1667.52600	1135.23816	
14521	145.200				-586.09955	1662.99097	1135.47510	
14522	145.210				-592.89368	1656.66199	1136.69189	
14523	145.220				-600.67993	1652.58252	1135.72754	
14524	145.230				-609.30585	1646.48865	1136.71057	
14525	145.240				-615.23468	1640.33130	1136.72742	
14526	145.250				-622.18787	1636.50659	1136.11487	
